<svg width="13" height="14" viewBox="0 0 13 14" fill="none" xmlns="http://www.w3.org/2000/svg">
<g clip-path="url(#clip0)">
<path d="M11.044 0H2.03942C1.01082 0 0.173828 0.881043 0.173828 1.96378V11.4423C0.173828 12.525 1.01082 13.4061 2.03942 13.4061H11.044C12.0726 13.4061 12.9096 12.525 12.9096 11.4423V1.96378C12.9096 0.881043 12.0726 0 11.044 0ZM6.5666 10.2117C4.7149 10.2117 3.20853 8.62602 3.20853 6.67686C3.20853 4.72771 4.7149 3.14205 6.5666 3.14205C8.41829 3.14205 9.92466 4.72771 9.92466 6.67686C9.92466 8.62602 8.41829 10.2117 6.5666 10.2117ZM10.2978 3.92757C9.68058 3.92757 9.17843 3.39898 9.17843 2.7493C9.17843 2.09961 9.68058 1.57103 10.2978 1.57103C10.915 1.57103 11.4171 2.09961 11.4171 2.7493C11.4171 3.39898 10.915 3.92757 10.2978 3.92757Z" fill="#101010"/>
<path d="M10.2969 2.35645C10.0911 2.35645 9.92383 2.53247 9.92383 2.7492C9.92383 2.96593 10.0911 3.14196 10.2969 3.14196C10.5028 3.14196 10.6701 2.96593 10.6701 2.7492C10.6701 2.53247 10.5028 2.35645 10.2969 2.35645Z" fill="#101010"/>
<path d="M6.56691 3.92749C5.1269 3.92749 3.95508 5.16099 3.95508 6.67679C3.95508 8.19258 5.1269 9.42608 6.56691 9.42608C8.00691 9.42608 9.17874 8.19258 9.17874 6.67679C9.17874 5.16099 8.00691 3.92749 6.56691 3.92749Z" fill="#101010"/>
</g>
<defs>
<clipPath id="clip0">
<rect width="12.7358" height="13.4061" fill="white" transform="translate(0.173828)"/>
</clipPath>
</defs>
</svg>
