<svg width="21" height="14" viewBox="0 0 21 14" fill="none" xmlns="http://www.w3.org/2000/svg">
<path d="M20.3959 12.0799C20.371 12.0191 20.3479 11.9687 20.3264 11.9283C19.9706 11.2007 19.2908 10.3076 18.2873 9.24879L18.2661 9.22454L18.2555 9.21265L18.2447 9.20047H18.234C17.7785 8.70742 17.4901 8.37591 17.3693 8.20618C17.1484 7.88286 17.0988 7.55559 17.2196 7.22399C17.305 6.97346 17.6255 6.44436 18.1805 5.63598C18.4724 5.20756 18.7036 4.8642 18.8743 4.60551C20.1057 2.74645 20.6396 1.55849 20.4758 1.04115L20.4122 0.920258C20.3694 0.847475 20.2591 0.780892 20.0814 0.720169C19.9033 0.659574 19.6756 0.649552 19.3979 0.689935L16.3234 0.714055C16.2736 0.694012 16.2024 0.69588 16.1098 0.720169C16.0172 0.744458 15.9709 0.756646 15.9709 0.756646L15.9174 0.787007L15.8749 0.823483C15.8393 0.847603 15.8002 0.890024 15.7575 0.950662C15.7149 1.01109 15.6794 1.082 15.651 1.16281C15.3162 2.14079 14.9356 3.05007 14.5085 3.89059C14.2451 4.39179 14.0033 4.82616 13.7824 5.19393C13.5618 5.56158 13.3768 5.83246 13.2274 6.00609C13.0779 6.1799 12.9429 6.31914 12.8216 6.42432C12.7006 6.52954 12.6082 6.574 12.5442 6.55774C12.4801 6.54148 12.4197 6.52534 12.3625 6.5092C12.263 6.43642 12.1829 6.33744 12.1225 6.21217C12.0618 6.0869 12.021 5.92923 11.9996 5.73929C11.9784 5.54923 11.9658 5.38574 11.9623 5.24829C11.9589 5.111 11.9605 4.91682 11.9677 4.66628C11.9751 4.41562 11.9784 4.24601 11.9784 4.15709C11.9784 3.84991 11.9837 3.51653 11.9943 3.15686C12.005 2.79719 12.0137 2.51222 12.021 2.30228C12.0283 2.09213 12.0317 1.86979 12.0317 1.63539C12.0317 1.40099 12.0191 1.21716 11.9943 1.08374C11.9697 0.950492 11.9321 0.821148 11.8825 0.695753C11.8325 0.570485 11.7595 0.473584 11.6636 0.404792C11.5675 0.336086 11.4481 0.281562 11.306 0.241052C10.9287 0.144108 10.4483 0.0916652 9.8646 0.0835121C8.54086 0.067376 7.69029 0.164448 7.31307 0.3746C7.16361 0.463392 7.02836 0.58471 6.90744 0.738174C6.77929 0.916054 6.76142 1.01313 6.85393 1.02909C7.28103 1.10175 7.58338 1.27555 7.76134 1.55033L7.82546 1.69594C7.87535 1.801 7.92515 1.98699 7.975 2.25366C8.02477 2.52033 8.05689 2.81533 8.07102 3.13848C8.10654 3.72859 8.10654 4.23374 8.07102 4.65396C8.03539 5.07436 8.00173 5.40162 7.96961 5.63602C7.93749 5.87042 7.88948 6.06036 7.82546 6.2058C7.76134 6.35128 7.71867 6.4402 7.69728 6.47247C7.67593 6.50474 7.65813 6.52508 7.644 6.53307C7.55149 6.57332 7.45528 6.59383 7.3557 6.59383C7.25597 6.59383 7.13505 6.53719 6.99273 6.42398C6.85045 6.31077 6.70279 6.15527 6.54974 5.95722C6.39669 5.75912 6.22409 5.4823 6.03185 5.12671C5.83976 4.77112 5.64046 4.35086 5.43405 3.86592L5.26328 3.51424C5.15652 3.28799 5.01069 2.95856 4.82564 2.52623C4.64047 2.09374 4.4768 1.67539 4.33452 1.27126C4.27765 1.10154 4.1922 0.972319 4.07834 0.8834L4.02491 0.846923C3.98939 0.814651 3.93236 0.780383 3.85414 0.743864C3.7758 0.707388 3.69406 0.68123 3.60858 0.665136L0.683388 0.689256C0.384471 0.689256 0.181654 0.766157 0.0748601 0.919748L0.0321203 0.992404C0.0107691 1.03287 0 1.0975 0 1.18646C0 1.27538 0.0213512 1.38451 0.064091 1.51373C0.491115 2.65346 0.955495 3.75263 1.45723 4.81142C1.95896 5.87021 2.39496 6.72309 2.76496 7.3693C3.13504 8.01598 3.51226 8.62631 3.89662 9.2C4.28097 9.77389 4.53539 10.1417 4.65987 10.3032C4.7845 10.4651 4.8824 10.5861 4.95356 10.6669L5.2205 10.9579C5.39131 11.1519 5.64214 11.3842 5.97311 11.6549C6.30414 11.9258 6.67063 12.1925 7.07275 12.4554C7.47494 12.7179 7.94284 12.932 8.47669 13.0977C9.01048 13.2635 9.53001 13.3301 10.0354 13.298H11.2631C11.5121 13.2735 11.7008 13.1846 11.829 13.0312L11.8715 12.9704C11.9 12.9222 11.9268 12.8472 11.9514 12.7464C11.9764 12.6453 11.9888 12.534 11.9888 12.413C11.9815 12.0655 12.0048 11.7523 12.0581 11.4735C12.1113 11.1948 12.172 10.9846 12.2398 10.8431C12.3076 10.7017 12.3841 10.5824 12.4692 10.4856C12.5546 10.3887 12.6154 10.33 12.651 10.3097C12.6865 10.2894 12.7148 10.2756 12.7361 10.2673C12.9069 10.2027 13.108 10.2653 13.3395 10.4554C13.5708 10.6453 13.7878 10.8799 13.9908 11.1586C14.1937 11.4376 14.4374 11.7506 14.722 12.0981C15.0068 12.4457 15.2559 12.7041 15.4693 12.874L15.6827 13.0195C15.8253 13.1166 16.0103 13.2055 16.2381 13.2863C16.4655 13.3671 16.6648 13.3873 16.8358 13.3469L19.5687 13.2985C19.8391 13.2985 20.0494 13.2477 20.1986 13.1468C20.3481 13.0458 20.4369 12.9345 20.4655 12.8134C20.4941 12.6923 20.4956 12.5548 20.471 12.401C20.4456 12.2477 20.4207 12.1405 20.3959 12.0799Z" fill="#101010"/>
</svg>
