<svg width="18" height="14" viewBox="0 0 18 14" fill="none" xmlns="http://www.w3.org/2000/svg">
<path d="M17.2524 1.296C16.7747 0.352121 16.2562 0.178506 15.2006 0.112483C14.1461 0.0330113 11.4943 0 9.19702 0C6.89531 0 4.24246 0.0330114 3.18903 0.111261C2.13559 0.178506 1.61603 0.350898 1.13389 1.296C0.641849 2.23866 0.388672 3.86233 0.388672 6.72086C0.388672 6.72331 0.388672 6.72453 0.388672 6.72453C0.388672 6.72698 0.388672 6.7282 0.388672 6.7282V6.73064C0.388672 9.57695 0.641849 11.2128 1.13389 12.1457C1.61603 13.0896 2.13449 13.2608 3.18793 13.3402C4.24246 13.4087 6.89531 13.4491 9.19702 13.4491C11.4943 13.4491 14.1461 13.4087 15.2017 13.3415C16.2573 13.262 16.7758 13.0908 17.2535 12.1469C17.75 11.2141 18.001 9.57818 18.001 6.73187C18.001 6.73187 18.001 6.7282 18.001 6.72575C18.001 6.72575 18.001 6.72331 18.001 6.72208C18.001 3.86233 17.75 2.23866 17.2524 1.296ZM6.99328 10.3925V3.0566L12.4971 6.72453L6.99328 10.3925Z" fill="#101010"/>
</svg>
